<?xml version="1.0" encoding="utf-8"?>
<!-- Generator: Adobe Illustrator 20.1.0, SVG Export Plug-In . SVG Version: 6.00 Build 0)  -->
<svg version="1.1" xmlns="http://www.w3.org/2000/svg" xmlns:xlink="http://www.w3.org/1999/xlink" x="0px" y="0px"
	 viewBox="0 0 4728 2000" style="enable-background:new 0 0 4728 2000;" xml:space="preserve">
<style type="text/css">
	.st0{fill:none;}
</style>
<g id="Clear_Space">
	<rect class="st0" width="4728" height="2000"/>
</g>
<g id="BR_x5F_Wordmark_x5F_Black">
	<g>
		<rect x="2000" y="400" class="st0" width="2328" height="1200"/>
		<g>
			<g id="report_3_">
				<path d="M2830.2,1050h-12.4h-31.4h-38.6H2686v59.5v110v60V1450h60v-170h40.3h31.4h12.4l55.8-58.1v-2.4v-110v-2.4L2830.2,1050z
					 M2746,1110h59.3l20.7,21.9v65.1l-20.7,22.9H2746V1110z"/>
				<polygon points="2633,1110 2633,1050 2515,1050 2453,1050 2453,1109.5 2453,1219.5 2453,1279.5 2453,1389.5 2453,1450 
					2515,1450 2633,1450 2633,1390 2513,1390 2513,1280 2613,1280 2613,1220 2513,1220 2513,1110 				"/>
				<polygon points="3603,1050 3433,1050 3433,1110 3487,1110 3487,1450 3547,1450 3547,1110 3603,1110 				"/>
				<path d="M3077.9,1050h-12.4H3037h-2.9h-28.6h-12.4l-59.1,57.1v7.9v24v221v24v7.9l59.1,58.1h7.4h33.6h2.9h28.5h12.4l56.1-58.1
					v-2.4v-5.5v-24v-40.5V1139v-29.5v-2.4L3077.9,1050z M3074,1367.2l-20.8,22.8h-35.3l-23.9-22.9v-235.2l23.9-21.9h35.3l20.8,21.8
					v187.7V1367.2z"/>
				<path d="M2310.5,1280l30.5,170h60l-34.6-193.5l33.6-34.1v-114.9l-56.6-57.5H2200v400h60v-170 M2260,1110h58.6l21.4,22.4v65.1
					l-21.4,22.5H2260V1110z"/>
				<path d="M3297.5,1280l30.5,170h60l-34.6-193.5l33.6-34.1v-114.9l-56.6-57.5H3187v400h60v-170 M3247,1110h58.6l21.4,22.4v65.1
					l-21.4,22.5H3247V1110z"/>
			</g>
			<g id="bleacher_3_">
				<path d="M2343.4,550H2331h-31.4H2261h-61v59.5v110v60v110V950h61h38.6h31.4h12.4l56.6-58.1v-2.4v-110v-2.4l-27.6-27.6l27.6-27.6
					v-2.4v-110v-2.4L2343.4,550z M2260,610h58.6l21.4,21.9v65.1l-21.4,22.9h-19H2260V610z M2260,780h39.6h19l21.4,21.9v65.1
					l-21.4,22.9H2260V780z"/>
				<polygon points="3582,550 3582,720 3502,720 3502,550 3442,550 3442,719.5 3442,779.5 3442,950 3502,950 3502,780 3582,780 
					3582,950 3642,950 3642,779.5 3642,719.5 3642,550 				"/>
				<polygon points="2852,610 2852,550 2733.5,550 2672,550 2672,609.5 2672,719.5 2672,779.5 2672,889.5 2672,950 2733.5,950 
					2852,950 2852,890 2732,890 2732,780 2832,780 2832,720 2732,720 2732,610 				"/>
				<polygon points="3876,610 3876,550 3757.8,550 3696,550 3696,609.5 3696,719.5 3696,779.5 3696,889.5 3696,950 3757.8,950 
					3876,950 3876,890 3756,890 3756,780 3856,780 3856,720 3756,720 3756,610 				"/>
				<polygon points="2513,890 2513,550 2453,550 2453,889.5 2453,950 2514,950 2623,950 2623,890 				"/>
				<polygon points="3332.9,550 3320.5,550 3292,550 3289.1,550 3260.5,550 3248.1,550 3189,607.1 3189,615.1 3189,639 3189,860 
					3189,883.9 3189,891.9 3248.1,950 3255.5,950 3289.1,950 3292,950 3320.5,950 3332.9,950 3389,891.9 3389,889.5 3389,860 
					3389,820 3329,820 3329,867.2 3308.2,890 3272.9,890 3249,867.1 3249,631.9 3272.9,610 3308.2,610 3329,631.8 3329,680 
					3389,680 3389,639 3389,609.5 3389,607.1 				"/>
				<path d="M3084,950h60l-70.5-400H3044h-19.5h-11.1H2994h-29.5L2894,950h60l19.4-110h91.2L3084,950z M2984,780l30-170h10.1l30,170
					H2984z"/>
				<path d="M4038.5,780l30.5,170h60l-34.6-193.5l33.6-34.1V607.5l-56.6-57.5H3928v400h60V780 M3988,610h58.6l21.4,22.4v65.1
					l-21.4,22.5H3988V610z"/>
			</g>
		</g>
		<g id="Logo">
			<polygon points="720,720 720,940 835.1,940 880,895.1 880,764.9 835.1,720 			"/>
			<polygon points="1520,720 1520,940 1635.1,940 1680,895.1 1680,764.9 1635.1,720 			"/>
			<polygon points="720,1060 720,1280 835.1,1280 880,1235.1 880,1104.9 835.1,1060 			"/>
			<path d="M400,400v1200h1600V400H400z M1000,944.9l-55.1,55.1l55.1,55.1v229.7L884.9,1400H600V600h284.9L1000,715.1V944.9z
				 M1300,970.7l-200,200v-141.4l200-200V970.7z M1695,1400l-91.1-340H1520v340h-120V600h284.9L1800,715.1v229.7l-84.4,84.4
				L1815,1400H1695z"/>
		</g>
	</g>
</g>
</svg>
