<svg xmlns="http://www.w3.org/2000/svg" viewBox="0 0 1575.55 220.66">
  <defs><style>.cls-1{fill:#000;}.cls-2{fill:#294d6f;}.cls-3{fill:#f05423;}.cls-4{fill:#4b295c;}</style></defs>
  <g id="Capa_2" data-name="Capa 2">
    <g id="Layer_2" data-name="Layer 2">
      <path class="cls-1" d="M1059.72,21.16a10.94,10.94,0,0,1-10.93,11,10.93,10.93,0,1,1,10.93-11Zm-1.83,0a9,9,0,1,0-9.09,9A8.94,8.94,0,0,0,1057.89,21.16Zm-6.68,1.51,2.51,3.63h-2.12l-2-3.28h-3V26.3h-1.83V15.44h4.37c2.83,0,4.4,1.35,4.4,3.73A3.49,3.49,0,0,1,1051.21,22.67Zm-2.12-1.19c1.67,0,2.67-.84,2.67-2.28s-1-2.22-2.67-2.22h-2.54v4.5Z"/>
      <path class="cls-1" d="M39.71,52.37v31h74.52v31.24H39.71v31.46h85v31.24H0V21.14H122.27V52.37Z"/>
      <path class="cls-1" d="M141.9,177.32V11.77h38.6V177.32Z"/>
      <path class="cls-1" d="M242.74,22.47c0,12-8.48,20.53-20.3,20.53s-20.3-8.48-20.3-20.53c0-11.82,8.48-20.3,20.3-20.3S242.74,10.65,242.74,22.47ZM203,177.32V57.06H241.4V177.32Z"/>
      <path class="cls-1" d="M336.89,57.06h42.17l-38.15,58.46,40.83,61.8h-44.4l-21.86-37.71-24.54,37.71H248.54l41.05-61.58L251.22,57.06h44.18l20.08,34.58Z"/>
      <path class="cls-1" d="M428.59,22.47c0,12-8.48,20.53-20.3,20.53S388,34.52,388,22.47c0-11.82,8.48-20.3,20.3-20.3S428.59,10.65,428.59,22.47ZM388.87,177.32V57.06h38.38V177.32Z"/>
      <path class="cls-1" d="M487.49,77.36c8.26-14.06,21.87-21.87,39-22.09V90.08c-22.31-2-37,8.48-39,25.44v61.8h-38.6V57.06h38.6Z"/>
      <path class="cls-1" d="M671.1,46.13l-23,27.22C637.86,60.85,622.69,53,608.85,53c-24.77,0-43.51,19.63-43.51,45.29,0,26.1,18.74,46,43.51,46,13.16,0,28.33-7.14,39.27-18.3l23.2,24.54c-16.73,17.18-41.5,28.56-64.48,28.56-47.08,0-82.11-34.58-82.11-80.32,0-45.07,35.92-79,83.45-79C631.39,19.8,655.49,30.06,671.1,46.13Z"/>
      <path class="cls-1" d="M798.5,117.08c0,37-26.33,61.58-65.59,61.58-39.49,0-65.82-24.54-65.82-61.58s26.33-61.36,65.82-61.36C772.17,55.72,798.5,80,798.5,117.08Zm-92.59.45c0,18.74,10.93,31.24,27,31.24,15.84,0,26.77-12.49,26.77-31.24,0-18.52-10.93-31.24-26.77-31.24C716.84,86.29,705.9,99,705.9,117.52Z"/>
      <path class="cls-1" d="M932.58,101.46v75.86H894.21V112.17c0-14.06-8.26-22.76-21.2-22.76-14.06,0-23,10-24.54,24.32v63.59h-38.6V57.06h38.6V76.69c8.48-14.06,22.31-21.2,40.16-21.42C915.18,55.27,932.58,73.34,932.58,101.46Z"/>
      <path class="cls-1" d="M995.94,53.71v8.7h27.22V87.85H995.94v89.47H957.79V87.85H941.5V62.41h16.29V51.26c0-26.55,20.08-41.28,46-41.28,11.83,0,24.54,3.12,33.69,8.48l-13.61,27a25,25,0,0,0-14.06-4.91C1002,40.32,995.94,44.79,995.94,53.71Z"/>
      <path class="cls-1" d="M1124.71,52.37v31h74.52v31.24h-74.52v31.46h85v31.24H1085V21.14h122.27V52.37Z"/>
      <path class="cls-1" d="M1366.57,111.72c0,41.28-27.44,67.38-71.17,67.38-44,0-72.07-26.1-72.07-67.38V21.14H1263v90.58c0,21.2,13.61,34.14,32.57,34.14,18.74,0,31.46-12.94,31.46-34.14V21.14h39.49Z"/>
      <path class="cls-2" d="M1473.2.72c-10.43,10-52.21,58.36-54.6,91.26q-.11,1.46-.11,2.87c0,32.89,24.49,59.55,54.7,59.55s54.7-26.66,54.7-59.55S1483.06,11.89,1473.2.72Z"/>
      <path class="cls-1" d="M1473.2,154.91c-30.44,0-55.2-26.94-55.2-60.05,0-.94,0-1.92.11-2.91C1420.6,57.55,1464.82,8,1472.85.36l.38-.36,1,1.12c24.72,28,54.18,66.95,54.18,93.73C1528.4,128,1503.64,154.91,1473.2,154.91Zm0-153.46c-8.9,8.71-51.63,57-54.07,90.58-.07,1-.11,1.92-.11,2.83,0,32.56,24.32,59.05,54.2,59.05s54.2-26.49,54.2-59.05c0-26.48-29.33-65.23-53.93-93.07Z"/>
      <path class="cls-3" d="M1526.23,34.85c-9.31,8.9-46.59,52.08-48.72,81.44q-.09,1.3-.09,2.56c0,29.35,21.86,53.15,48.82,53.15S1575,148.21,1575,118.86,1535,44.82,1526.23,34.85Z"/>
      <path class="cls-1" d="M1526.23,172.5c-27.19,0-49.32-24.07-49.32-53.65,0-.84,0-1.71.1-2.6,2.23-30.71,41.7-74.91,48.88-81.77l.38-.36.92,1c22.06,25,48.37,59.76,48.37,83.68C1575.55,148.44,1553.43,172.5,1526.23,172.5Zm0-136.93c-8,7.88-46,50.85-48.19,80.76-.06.86-.09,1.71-.09,2.52,0,29,21.67,52.65,48.32,52.65s48.32-23.62,48.32-52.65c0-23.61-26.17-58.18-48.12-83Z"/>
      <path class="cls-4" d="M1480.61,91.25c-8.75,8.36-43.79,48.95-45.79,76.55q-.09,1.22-.09,2.41c0,27.59,20.54,50,45.88,50s45.88-22.36,45.88-50S1488.88,100.62,1480.61,91.25Z"/>
      <path class="cls-1" d="M1480.61,220.66c-25.58,0-46.38-22.63-46.38-50.45,0-.79,0-1.61.09-2.44,2.09-28.88,39.21-70.43,45.95-76.87l.38-.36.89,1C1502.27,115,1527,147.71,1527,170.21,1527,198,1506.19,220.66,1480.61,220.66Zm0-128.68c-7.59,7.46-43.23,47.79-45.27,75.86-.06.81-.09,1.6-.09,2.37,0,27.27,20.36,49.45,45.38,49.45S1526,197.47,1526,170.21c0-22.18-24.59-54.67-45.22-78Z"/>
    </g>
  </g>
</svg>
