<svg xmlns="http://www.w3.org/2000/svg" xmlns:xlink="http://www.w3.org/1999/xlink" width="310" height="145" viewBox="0 0 82.020832 38.364585">
  <defs>
    <path id="a" d="M88.733482 125.34941h29.934187v34.745041H88.733482z"/>
  </defs>
  <defs>
    <path id="f" d="M149.1364 129.35844h33.675961v31.270535H149.1364z"/>
    <path id="e" d="M120.53856 131.49661h27.528761v28.063299H120.53856z"/>
    <path id="d" d="M59.066566 124.5476H85.79352v32.072342H59.066566z"/>
    <path id="c" d="M43.564934 125.08214h18.174328v29.934187H43.564934z"/>
    <path id="b" d="M17.63979 126.95303h29.666918v26.726954H17.63979z"/>
    <use xlink:href="#a" id="g"/>
  </defs>
  <path fill="#092240" d="M2.2182598 2.3999322V21.031781c-.0002209.235322.1144087.330271.3173163.31732h3.2030972c.3128821.01506.3552589-.147116.3442587-.34426v-7.325213c-.016402-.296391.1400058-.294287.2948646-.294865h8.2217814c.185064-.0015.320552.0627.315071.315069v7.272082c-.0013.28754.157731.374789.381303.381303h3.087474c.222275.0073.372728-.07715.364277-.364277V2.4119072c.018112-.3243273-.153609-.4070358-.397676-.3976743H15.23421c-.271136.00193-.365165.1384228-.354501.3545011v7.1438713c.01705.2873801-.129248.3153343-.301717.3017166H6.3254089c-.2027205.0119065-.2700555-.0901966-.2586265-.2586265V2.3280877c-.0201483-.257146-.162692-.2847961-.3077443-.3077444H2.5415633c-.2096684.0139036-.328025.1287288-.3233035.3795889ZM36.368667 8.8779735l2.658271-1.4488788c.191449-.096155.198387-.2307498.119743-.3831741C36.04555.15320692 26.538717.51960999 23.013399 4.9570011c-3.561329 4.6961671-2.723788 10.0640039 0 13.4644089 4.151856 4.785985 12.734415 4.727887 16.155103-2.080479.108742-.199943.07737-.385636-.08467-.495319l-2.777187-1.303924c-.227423-.124448-.391391-.0744-.491088.152403-2.11157 3.725565-5.867847 4.059677-8.704112 2.319967-3.079501-2.095163-3.729313-7.8667684 0-10.634595 2.581954-1.719981 6.563509-1.4839906 8.76338 2.345368.106581.2168563.275538.2554986.493842.1531425zm3.316852 12.4651355h3.340804c.184214.004.286157-.144818.359223-.347249l1.438936-3.897129c.07295-.202243.220861-.277063.406418-.28788h2.540109c1.860616-.01034 2.931696-1.073453 3.166673-3.251342.01946-.202847-.08823-.253119-.237076-.254011h-4.114983c-.237259.01987-.303898-.08345-.254011-.270946l2.540114-6.7397602c.04668-.1804215.290962-.190777.355614 0l5.537442 14.8088452c.08611.178136.215898.256453.381018.25401h3.378346c.315499-.03675.326463-.23844.245546-.528885L51.575895 2.3400625c-.088934-.2515955-.23444-.3429164-.419096-.3233044h-4.107147c-.171754.00683-.315048.093377-.407127.3233044l-7.19461 18.4079595c-.138063.340707-.08698.557493.237604.595087z"/>
  <path fill="#e75925" d="M69.315555 1.9744046v5.3565041c-.066 2.2920588-1.768436 3.2952203-3.307945 3.3079423h-5.363146c-.146969-.0152-.298484-.02246-.260787-.360824.245307-1.6707279 1.328684-2.1862819 2.738241-2.2522316h2.197962c.76921-.00851 1.481047-.6548131 1.445479-1.4454791V4.045185c.04247-1.3123213 1.084492-2.1845822 2.212363-2.3552728.219853-.036237.318962.075093.337833.2844924zM60.663898 12.434223h5.356506c2.292058.066 3.295222 1.768435 3.307944 3.307945v5.363146c-.01521.146969-.02246.298484-.360825.260788-1.670729-.245308-2.186283-1.328685-2.252233-2.738242v-2.197962c-.0085-.76921-.654813-1.481047-1.445479-1.445479h-2.535132c-1.312322-.04248-2.184585-1.084492-2.355276-2.212363-.03624-.219852.0751-.318962.284495-.337833zm10.416904 8.678375v-5.356506c.066-2.292058 1.768436-3.295222 3.307945-3.307945h5.363146c.146969.0152.298484.02246.260787.360825-.245307 1.670729-1.328684 2.186284-2.73824 2.252234h-2.197963c-.76921.0085-1.481047.654813-1.445479 1.445478v2.535132c-.04248 1.312323-1.084492 2.184586-2.212362 2.355277-.219854.03624-.318963-.0751-.337834-.284495zm8.596245-10.488315h-5.356505c-2.292059-.066-3.295223-1.7684357-3.307945-3.3079455V1.9531933c.01521-.1469688.02246-.2984842.360825-.2607878 1.67073.2453078 2.186283 1.3286849 2.252233 2.7382401v2.1979623c.0085.76921.654813 1.4810467 1.445479 1.4454792h2.535132c1.312322.042476 2.184585 1.0844921 2.355276 2.2123639.03624.219852-.0751.318961-.284495.337832z"/>
  <g fill="#092240">
    <g style="line-height:1.25;white-space:pre;shape-inside:url(#b)">
      <path d="M25.738296 136.60859h-3.043732v-.3669q.124023-.0103.356566-.031.237711-.0207.325561-.062.155029-.062.227375-.18603.07235-.12919.07235-.33073v-2.60965h-3.446807v2.5528q0 .18087.05684.30489.06201.12403.237711.21705.08785.0465.310057.093.227376.0465.356567.0517v.3669h-3.043733v-.3669q.124023-.0103.356567-.031.237711-.0207.32556-.062.155029-.062.227376-.18603.07235-.12919.07235-.33073v-5.29165q0-.16537-.06718-.29972-.06718-.13953-.232543-.21704-.139526-.0672-.341063-.11886-.19637-.0517-.341064-.062v-.3669h3.043733v.3669q-.144694.005-.356567.0465-.206705.0413-.310057.0775-.1757.062-.237711.20671-.05684.14469-.05684.31522v2.27376h3.446807v-2.22208q0-.16537-.06718-.29972-.06718-.13953-.232543-.21704-.139526-.0672-.341064-.11886-.196369-.0517-.341063-.062v-.3669h3.043732v.3669q-.144693.005-.356566.0465-.206705.0413-.310058.0775-.175699.062-.237711.20671-.05684.14469-.05684.31522v5.28648q0 .18087.05684.30489.06201.12403.237711.21705.08785.0465.310058.093.227375.0465.356566.0517z" aria-label="H" font-family="Georgia" font-size="10.5833" font-weight="400" style="-inkscape-font-specification:'Georgia, Normal';font-variant-ligatures:normal;font-variant-caps:normal;font-variant-numeric:normal;font-variant-east-asian:normal" transform="translate(-27.727291 -187.41638) scale(1.63863)"/>
    </g>
    <g style="line-height:1.25;white-space:pre;shape-inside:url(#c)">
      <path d="M48.463363 133.53861q-.320393.60978-.857826.97151t-1.235063.36173q-.614947 0-1.080034-.21704-.459918-.21704-.759641-.58911-.299722-.37206-.449583-.86816-.144694-.49609-.144694-1.04902 0-.4961.155029-.97152.160196-.48059.465086-.86299.294555-.3669.728636-.58911.439248-.22738.981849-.22738.558104 0 .956011.1757t.645953.48059q.237711.28939.351399.68213.118855.39274.118855.85266v.34106h-3.37446q0 .50126.09302.9095.09819.40824.30489.7183.201538.29972.527098.47542.325561.17054.775144.17054.459919 0 .790647-.21188.335896-.21704.645953-.77514zm-1.142045-1.94303q0-.28939-.05168-.62012-.04651-.33072-.155029-.55293-.118856-.23771-.325561-.38757-.206705-.14987-.532265-.14987-.542601 0-.904335.45476-.356566.44958-.387572 1.25573z" aria-label="e" font-family="Georgia" font-size="10.5833" font-weight="400" style="-inkscape-font-specification:'Georgia, Normal';font-variant-ligatures:normal;font-variant-caps:normal;font-variant-numeric:normal;font-variant-east-asian:normal" transform="translate(-58.019207 -184.75231) scale(1.64201)"/>
    </g>
    <g style="line-height:1.25;white-space:pre;shape-inside:url(#d)">
      <path d="M64.265039 134.10932q-.242879.0879-.428913.13953-.180867.0568-.41341.0568-.403075 0-.645954-.18603-.237711-.1912-.30489-.55294h-.03101q-.335896.37207-.723468.56844-.382405.19637-.925005.19637-.573607 0-.945676-.3514-.366902-.3514-.366902-.91984 0-.29455.08268-.52709.08268-.23255.248047-.41858.12919-.15503.341063-.27389.211873-.12402.397907-.19637.232543-.0878.940508-.32556.713133-.23771.961179-.37206v-.5116q0-.0672-.03101-.25838-.02584-.1912-.118855-.36174-.103353-.1912-.294555-.33072-.186035-.1447-.532266-.1447-.237711 0-.444416.0827-.201537.0775-.284219.16536 0 .10335.04651.30489.05168.20154.05168.37207 0 .18087-.165364.33073-.160197.14986-.449584.14986-.258381 0-.382404-.18087-.118856-.18603-.118856-.41341 0-.23771.165365-.45475.170531-.21704.439248-.38757.232543-.1447.563271-.24288.330728-.10335.645953-.10335.434081 0 .754474.062.32556.0568.589109.25321.263549.1912.397908.52193.139526.32556.139526.84233 0 .73897-.0155 1.31257-.0155.56844-.0155 1.2454 0 .20154.06718.32039.07235.11886.21704.20154.07752.0465.242879.0517.170531.005.346231.005zm-1.803502-2.7285q-.439248.12919-.769976.25321-.330728.12402-.614948.31006-.258381.1757-.408242.41857-.149862.23772-.149862.56844 0 .42892.222208.63045.227376.20154.573607.20154.366901 0 .645953-.1757.279052-.18086.470254-.42374z" aria-label="a" font-family="Georgia" font-size="10.5833" font-weight="400" style="-inkscape-font-specification:'Georgia, Normal';font-variant-ligatures:normal;font-variant-caps:normal;font-variant-numeric:normal;font-variant-east-asian:normal" transform="translate(-75.236305 -183.35465) scale(1.63769)"/>
    </g>
    <path d="M42.172373 25.481206v9.556195c0 .203554-.03976.370512-.118919.500559-.07916.124394-.197913.212095-.356232.262983-.09613.02827-.214876.05088-.356233.06785-.141357.01131-.277.02248-.407047.03379v.559757h4.105053v-.559757c-.158319-.0113-.305395-.03092-.441099-.05919-.130049-.02827-.257246-.07075-.381641-.127301-.158319-.06786-.277072-.163997-.356231-.28839-.0735-.124395-.110275-.282645-.110275-.47489v-4.809136c.05654-.09613.135798-.214877.237575-.356232.101777-.141358.248855-.282718.4411-.424074.1979-.135703.421243-.248739.670031-.339207.254442-.09613.528717-.144065.82274-.144065.401453 0 .740559.160978 1.017619.483272.282713.322293.424074.780414.424074 1.374113v4.299934c0 .203554-.0395.370512-.118657.500559-.0735.124394-.189531.212095-.347851.262983-.101777.03393-.231702.05653-.390021.06785-.15832.0113-.30267.02248-.432719.03379v.559757h4.105055v-.559772c-.169628-.0113-.308-.02819-.41543-.05082-.101777-.02827-.217802-.06777-.347851-.118658-.163974-.06785-.282726-.16127-.356232-.280009-.06785-.124393-.101631-.285632-.101631-.483531v-4.35075c0-.887719-.200736-1.566458-.602189-2.035762-.401454-.47496-.975602-.712204-1.721965-.712204-.361874 0-.689809.04521-.98383.135684-.288368.09047-.539775.203504-.754636.339206-.248788.15832-.449524.310853-.602189.457864-.152666.141356-.322351.305324-.508941.491914h-.03406v-3.814306zm-6.03028.04872v2.60364h-1.543587v.814357h1.509535v5.665405c0 .644587.14136 1.145195.424074 1.501414.288367.350565.783259.525705 1.484388.525705.474959 0 .876432-.05366 1.20438-.161091.327948-.101777.6755-.228974 1.043027-.38164v-.619215c-.113084.03958-.308104.07362-.585164.101893-.271404.02262-.477858.03379-.619216.03379-.30533 0-.548291-.04223-.729228-.127038-.180936-.08482-.316842-.209285-.40731-.373259-.09613-.175282-.158226-.378747-.186498-.610571-.02262-.237479-.03379-.531635-.03379-.8822v-4.673192h2.383089v-.814356h-2.400117v-2.60364z" font-family="sans-serif" font-size="10.5833" font-weight="400" style="line-height:1.25;white-space:pre;shape-inside:url(#a)"/>
    <g style="line-height:1.25;white-space:pre;shape-inside:url(#e)" transform="translate(-151.74173 -199.3091) scale(1.67069)">
      <path d="M123.26757 141.28592q-1.10587 0-1.73116-.73381-.62528-.7338-.62528-1.96886 0-.53743.16537-1.00252.17053-.47026.49092-.85266.30489-.3669.76481-.58911.45992-.22737 1.00252-.22737.7493 0 1.21956.36173.47025.35657.47025.97668 0 .25838-.12402.45992-.12402.19637-.40824.19637-.30489 0-.47542-.15503-.16537-.15503-.16537-.34623 0-.23254.062-.47542.062-.24805.0724-.36174-.093-.16019-.27905-.21187-.18087-.0568-.39274-.0568-.24805 0-.47542.10852-.22221.10335-.43408.38757-.19121.25838-.31006.69763-.11886.43925-.11886 1.04903 0 .96118.42375 1.57096.42891.60461 1.12137.60461.50126 0 .83716-.24288.34106-.24288.63045-.72864l.33073.21704q-.34107.60978-.89917.96635-.5581.35657-1.15238.35657zm7.01031-.22738q-.24287.0879-.42891.13953-.18087.0568-.41341.0568-.40307 0-.64595-.18603-.23771-.19121-.30489-.55294h-.031q-.33589.37207-.72347.56844-.3824.19637-.925.19637-.57361 0-.94568-.3514-.3669-.3514-.3669-.91984 0-.29455.0827-.52709.0827-.23255.24805-.41858.12919-.15503.34106-.27389.21188-.12402.39791-.19637.23254-.0879.94051-.32556.71313-.23771.96118-.37207v-.51159q0-.0672-.031-.25838-.0258-.1912-.11885-.36174-.10336-.1912-.29456-.33072-.18603-.1447-.53226-.1447-.23772 0-.44442.0827-.20154.0775-.28422.16537 0 .10335.0465.30489.0517.20154.0517.37207 0 .18086-.16536.33073-.1602.14986-.44958.14986-.25838 0-.38241-.18087-.11885-.18603-.11885-.41341 0-.23771.16536-.45475.17053-.21704.43925-.38757.23254-.1447.56327-.24288.33073-.10335.64595-.10335.43409 0 .75448.062.32556.0568.58911.25321.26355.1912.3979.52193.13953.32556.13953.84232 0 .73897-.0155 1.31258-.0155.56844-.0155 1.2454 0 .20154.0672.32039.0724.11886.21704.20154.0775.0465.24288.0517.17053.005.34623.005zm-1.8035-2.72851q-.43925.1292-.76997.25322-.33073.12402-.61495.31006-.25838.1757-.40824.41857-.14987.23771-.14987.56844 0 .42892.22221.63045.22738.20154.57361.20154.3669 0 .64595-.1757.27905-.18087.47026-.42374z" aria-label="ca" font-family="Georgia" font-size="10.5833" font-weight="400" letter-spacing="-.265704" style="-inkscape-font-specification:'Georgia, Normal';font-variant-ligatures:normal;font-variant-caps:normal;font-variant-numeric:normal;font-variant-east-asian:normal"/>
    </g>
    <g style="line-height:1.25;white-space:pre;shape-inside:url(#f)" transform="translate(-178.57082 -191.3134) scale(1.63859)">
      <path d="M153.41035 134.57585q0 .26355-.12919.47025-.1292.20154-.39791.20154-.28939 0-.44442-.14986-.14986-.14986-.14986-.33073 0-.11369.0155-.2067.0207-.093.0362-.18604-.24288 0-.56844.19637-.32556.19637-.55294.5581v2.96622q0 .18087.0672.29456.0724.11369.22221.17053.12919.0517.33073.0775.2067.0258.35656.0362v.34106h-2.68716v-.34106q.11885-.0103.24288-.0207.12919-.0103.2222-.0413.1447-.0465.21188-.1602.0723-.11886.0723-.30489v-3.14709q0-.16019-.0775-.31522-.0724-.15503-.20671-.24805-.0982-.062-.23254-.0879-.13436-.031-.28939-.0413v-.33589l1.69499-.11369.0723.0724v.7183h.0258q.32039-.41858.71313-.63562.39274-.21704.7183-.21704.32556 0 .5271.21187.20671.21187.20671.56844zm4.57543 3.2401q-.3204.60978-.85783.97151-.53743.36174-1.23506.36174-.61495 0-1.08004-.21704-.45991-.21704-.75964-.58911-.29972-.37207-.44958-.86816-.14469-.49609-.14469-1.04903 0-.49609.15502-.97151.1602-.48059.46509-.863.29456-.3669.72864-.58911.43924-.22737.98185-.22737.5581 0 .95601.1757.3979.1757.64595.48059.23771.28938.3514.68212.11885.39274.11885.85266v.34106h-3.37446q0 .50126.093.90951.0982.40824.30489.7183.20154.29972.5271.47542.32556.17053.77514.17053.45992 0 .79065-.21187.3359-.21704.64595-.77515zm-1.14205-1.94303q0-.28938-.0517-.62011-.0465-.33073-.15503-.55294-.11886-.23771-.32556-.38757-.20671-.14986-.53227-.14986-.5426 0-.90433.45475-.35657.44958-.38758 1.25573z" aria-label="re" font-family="Georgia" font-size="10.5833" font-weight="400" letter-spacing="-.385491" style="-inkscape-font-specification:'Georgia, Normal';font-variant-ligatures:normal;font-variant-caps:normal;font-variant-numeric:normal;font-variant-east-asian:normal"/>
    </g>
    <path d="M31.767508 26.060871V35.0319c0 .201411-.03928.366642-.11761.49532-.07833.123084-.195913.20975-.352565.260103-.09511.02798-.215222.05028-.360686.06706-.145462.01119-.28256.02234-.411238.03353v.553993h4.036426v-.553996c-.151057-.01118-.287891-.0307-.410977-.05867-.117489-.02798-.237863-.07004-.360947-.125991-.162246-.06714-.279833-.162163-.352564-.285248-.07273-.128678-.108966-.290861-.108966-.486676v-8.870446z" font-family="sans-serif" font-size="33.9076" font-weight="400" style="line-height:1.25"/>
    <path d="m43.634199 24.268709-3.095817.195142v.542727c.15832.0113.364773.03391.619215.06785.260096.02828.440952.0792.542733.152707.141357.09613.254654.240472.339465.432715.09047.192248.135686.384279.135686.576521v1.370447h1.577373v-3.210803zm-7.489001 2.196852v1.141252h1.543587v-1.141252z" font-family="sans-serif" font-size="10.5833" font-weight="400" style="line-height:1.25;white-space:pre;shape-inside:url(#g)"/>
    <path d="m33.208415 24.265301-3.113367.193048v.537229c.162248.01119.37765.04464.646196.100584.268546.05594.45329.117528.553993.184664.139868.100705.25162.24059.335541.419622.08951.173435.134372.360704.134372.562113v8.084116h1.560874v-9.955384z" font-family="sans-serif" font-size="33.9076" font-weight="400" style="line-height:1.25"/>
  </g>
  <path fill="#e75925" d="M68.496635 11.23689c.54317-.398689 1.03051-.829281 1.35368-1.3536836.222122-.2824943.444241-.2785828.666364 0 .339648.5077166.741373.9666586 1.301299 1.3012976.381662.274555.309661.512518 0 .731321-.500455.358753-.914978.772191-1.241579 1.241579-.249013.29932-.498025.326291-.747039 0-.374201-.475384-.76292-.941533-1.308105-1.308106-.230563-.160289-.350308-.342436-.02464-.612408z"/>
</svg>