<svg width="253px" height="120px" viewBox="0 0 253 120" version="1.1" xmlns="http://www.w3.org/2000/svg" xmlns:xlink="http://www.w3.org/1999/xlink">
    <!-- Generator: Sketch 49.3 (51167) - http://www.bohemiancoding.com/sketch -->
    <title>Jointley LLC - The work of Jaythan Elam</title>
    <desc>Created with Sketch.</desc>
    <defs></defs>
    <g id="Page-1" stroke="none" stroke-width="1" fill="none" fill-rule="evenodd" opacity="0.699999988">
        <g id="logo-andco" fill="#000000">
            <g id="Jointley-Logo" style="mix-blend-mode: multiply;">
                <path d="M45.544387,88.369283 C49.8579213,83.6021857 52.5075493,77.2668099 52.5075493,70.2716554 C52.5075493,56.9626396 42.9335214,45.9520923 30.4058518,43.9336387 L113.772871,43.9336387 L45.544387,88.369283 Z M0.0361997308,0 L0.0361997308,43.9336387 L22.1074639,43.9336387 C9.57979424,45.9520923 0,56.9626396 0,70.2716554 C0,85.0390952 11.7537002,96.9923699 26.2576189,96.9923699 C29.0369894,96.9923699 31.7090421,96.5513221 34.2225207,95.7350741 L0.0361997308,118 L114,118 L114,0 L0.0361997308,0 Z" id="Fill-1-Copy-35"></path>
                <path d="M138.653971,107.646478 L142.841001,107.646478 C142.870487,108.950445 143.666612,110.284049 145.140919,110.284049 C146.025502,110.284049 146.674197,109.86915 147.116489,109.128259 C147.529295,108.387368 147.529295,107.29085 147.529295,106.461053 L147.529295,95.8218623 L145.229377,95.8218623 L145.229377,92.4434008 L153.80984,92.4434008 L153.80984,95.8218623 L151.539408,95.8218623 L151.539408,106.964858 C151.539408,108.861538 151.421464,110.34332 150.094588,111.884372 C148.915143,113.247611 146.998545,114.018138 145.170405,114.018138 C141.396181,114.018138 138.50654,111.499109 138.653971,107.646478 Z M162.803108,114.018138 C158.203273,114.018138 154.576479,110.195142 154.576479,105.631255 C154.576479,101.008097 158.321217,97.3036437 162.891567,97.3036437 C167.43243,97.3036437 171.08871,101.097004 171.08871,105.601619 C171.08871,110.224777 167.43243,114.018138 162.803108,114.018138 Z M162.803108,110.461862 C165.427374,110.461862 167.550375,108.328097 167.550375,105.690526 C167.550375,103.112227 165.515832,100.859919 162.891567,100.859919 C160.296788,100.859919 158.114814,102.964049 158.114814,105.601619 C158.114814,108.209555 160.119871,110.461862 162.803108,110.461862 Z M177.546172,97.7778138 L177.546172,110.224777 L179.580714,110.224777 L179.580714,113.603239 L171.884835,113.603239 L171.884835,110.224777 L173.948864,110.224777 L173.948864,101.156275 L171.914321,101.156275 L171.914321,97.7778138 L177.546172,97.7778138 Z M177.546172,92.4434008 L177.546172,96.2663968 L173.948864,96.2663968 L173.948864,92.4434008 L177.546172,92.4434008 Z M182.706244,110.224777 L182.706244,101.156275 L180.671701,101.156275 L180.671701,97.7778138 L186.303551,97.7778138 L186.303551,100.030121 C187.247107,98.2816194 189.016275,97.4221862 190.962359,97.4221862 C192.672554,97.4221862 194.353264,98.1334413 195.503223,99.3781377 C196.800612,100.830283 196.830098,102.223158 196.830098,104.030931 L196.830098,110.224777 L198.864641,110.224777 L198.864641,113.603239 L191.198248,113.603239 L191.198248,110.224777 L193.232791,110.224777 L193.232791,105.097814 C193.232791,104.119838 193.232791,103.112227 192.613582,102.252794 C191.964887,101.39336 190.903387,100.978462 189.841886,100.978462 C188.7509,100.978462 187.630427,101.422996 186.981732,102.312065 C186.303551,103.201134 186.303551,104.564372 186.303551,105.631255 L186.303551,110.224777 L188.338094,110.224777 L188.338094,113.603239 L180.671701,113.603239 L180.671701,110.224777 L182.706244,110.224777 Z M205.469533,101.156275 L205.469533,110.224777 L208.329688,110.224777 L208.329688,113.603239 L201.872226,113.603239 L201.872226,101.156275 L199.395391,101.156275 L199.395391,97.7778138 L201.872226,97.7778138 L201.872226,92.4434008 L205.469533,92.4434008 L205.469533,97.7778138 L208.152771,97.7778138 L208.152771,101.156275 L205.469533,101.156275 Z M215.347386,92.4434008 L215.347386,110.224777 L217.381928,110.224777 L217.381928,113.603239 L209.568105,113.603239 L209.568105,110.224777 L211.750078,110.224777 L211.750078,95.8218623 L209.715535,95.8218623 L209.715535,92.4434008 L215.347386,92.4434008 Z M230.267366,108.950445 L234.012104,108.950445 C232.773686,111.973279 229.85456,114.018138 226.5816,114.018138 C221.981764,114.018138 218.295998,110.402591 218.295998,105.749798 C218.295998,101.067368 221.804847,97.3036437 226.493141,97.3036437 C228.675115,97.3036437 230.857088,98.2816194 232.390367,99.8523077 C233.953131,101.511903 234.601826,103.527126 234.601826,105.779433 L234.483882,107.053765 L221.745875,107.053765 C222.217653,109.246802 224.22271,110.847126 226.463655,110.847126 C228.02642,110.847126 229.382782,110.254413 230.267366,108.950445 Z M221.716389,104.268016 L231.269894,104.268016 C230.650685,101.986073 228.645629,100.533927 226.316225,100.533927 C224.193223,100.533927 222.158681,102.193522 221.716389,104.268016 Z M250.730737,101.156275 L244.627109,116.003725 L246.691138,116.003725 L246.691138,119.382186 L239.024745,119.382186 L239.024745,116.003725 L241.000316,116.003725 L242.061816,113.395789 L237.285064,101.156275 L235.221035,101.156275 L235.221035,97.7778138 L242.651539,97.7778138 L242.651539,101.156275 L241.11826,101.156275 L243.919442,108.891174 L246.897541,101.156275 L245.364262,101.156275 L245.364262,97.7778138 L252.706308,97.7778138 L252.706308,101.156275 L250.730737,101.156275 Z" id="Made-Jointley-Copy-17" style="mix-blend-mode: multiply;"></path>
                <path d="M240.114356,17.6663207 L240.114356,22.5318276 L240.902655,22.5318276 L240.902655,23.6897979 L237.951588,23.6897979 L237.951588,22.5318276 L238.739887,22.5318276 L238.739887,17.6663207 L237.678716,17.6663207 L237.678716,18.7227147 L236.587225,18.7227147 L236.587225,16.437247 L242.267018,16.437247 L242.267018,18.7227147 L241.175528,18.7227147 L241.175528,17.6663207 L240.114356,17.6663207 Z M251.180856,17.5952173 L251.180856,22.5318276 L251.969155,22.5318276 L251.969155,23.6897979 L249.028195,23.6897979 L249.028195,22.5318276 L249.806387,22.5318276 L249.806387,18.3164093 L247.815428,23.6897979 L246.845214,23.6897979 L244.793616,18.3164093 L244.793616,22.5318276 L245.632447,22.5318276 L245.632447,23.6897979 L242.630848,23.6897979 L242.630848,22.5318276 L243.419147,22.5318276 L243.419147,17.5952173 L242.630848,17.5952173 L242.630848,16.437247 L245.339361,16.437247 L247.300002,21.5566947 L249.260642,16.437247 L251.969155,16.437247 L251.969155,17.5952173 L251.180856,17.5952173 Z" id="TM" style="mix-blend-mode: multiply;"></path>
                <rect id="Rectangle-6-Copy-16" style="mix-blend-mode: multiply;" x="138.300137" y="0" width="113.030151" height="9.87854251"></rect>
            </g>
        </g>
    </g>
</svg>