<svg width="69" height="50" viewBox="0 0 69 50" fill="none" xmlns="http://www.w3.org/2000/svg">
<path d="M33.1348 0.371527H37.1032V3.12729C38.2371 1.45979 39.8358 0 42.5372 0C46.4574 0 48.7279 2.71773 48.7279 6.86599V18.322H44.7567V8.12392C44.7567 5.33599 43.4074 3.73577 41.0348 3.73577C38.7303 3.73577 37.1174 5.40035 37.1174 8.18828V18.3191H33.1348V0.371527Z" fill="#005171"/>
<path d="M51.457 9.40559V9.33838C51.457 4.20885 55.0492 0 60.1199 0C65.7566 0 68.6095 4.48067 68.6095 9.64527C68.6095 10.0165 68.5749 10.3906 68.5431 10.7998H55.5228C55.9588 13.7226 58.0062 15.3506 60.6223 15.3506C62.6033 15.3506 64.0124 14.6024 65.4216 13.2111L67.8039 15.3506C66.1262 17.3966 63.8103 18.7118 60.5559 18.7118C55.4188 18.7118 51.457 14.9414 51.457 9.40559ZM64.5784 8.08156C64.3099 5.4335 62.765 3.36123 60.0795 3.36123C57.599 3.36123 55.852 5.29613 55.4853 8.08156H64.5784Z" fill="#005171"/>
<path d="M33.1348 21.0356H37.1032V23.7884C38.2371 22.1238 39.8358 20.6611 42.5372 20.6611C46.4574 20.6611 48.7279 23.3818 48.7279 27.5271V38.9831H44.7567V28.7851C44.7567 25.9971 43.4074 24.3969 41.0348 24.3969C38.7303 24.3969 37.1174 26.0644 37.1174 28.8494V38.9802H33.1348V21.0356Z" fill="#005171"/>
<path d="M51.457 30.0697V29.9995C51.457 24.8729 55.0492 20.6611 60.1199 20.6611C65.7566 20.6611 68.6095 25.1447 68.6095 30.3064C68.6095 30.6805 68.5749 31.0546 68.5431 31.4609H55.5228C55.9588 34.3837 58.0062 36.0117 60.6223 36.0117C62.6033 36.0117 64.0124 35.2635 65.4216 33.8722L67.8039 36.0117C66.1262 38.0577 63.8103 39.3729 60.5559 39.3729C55.4188 39.37 51.457 35.6025 51.457 30.0697ZM64.5784 28.7427C64.3099 26.0946 62.765 24.0224 60.0795 24.0224C57.599 24.0224 55.852 25.9602 55.4853 28.7427H64.5784Z" fill="#005171"/>
<path d="M28.7977 14.5939C28.053 13.3901 26.9448 12.5164 25.7696 11.7187C28.8558 3.04609 15.9641 0.0305558 15.394 9.32845C15.3562 11.7596 16.6942 14.1118 19.0794 14.8482C20.3767 15.1725 21.7206 15.1667 22.7358 15.6283C22.8056 15.678 23.1197 15.8358 23.2652 15.9206C23.5074 16.0773 23.7301 16.2627 23.9284 16.4728C24.2578 16.953 24.5311 17.4697 24.7428 18.0127C23.4932 18.48 22.1697 18.7166 20.8363 18.7111C19.4176 18.7287 18.0128 18.4274 16.7249 17.8293C15.437 17.2312 14.2985 16.3514 13.3928 15.2543C8.49146 9.43656 12.7383 -0.232419 20.7694 0.00426522C28.5155 -0.203199 32.995 8.62132 28.7977 14.5939Z" fill="#005171"/>
<path d="M2.05549 23.2764V14.6957H0V11.4951H2.05549V7.01709H5.77273V11.4805H10.1356V14.6812H5.77273V22.677C5.77273 24.1318 6.51097 24.7138 7.77032 24.7138C8.57552 24.718 9.3699 24.5274 10.0864 24.158V27.2161C9.06413 27.8023 7.90175 28.0962 6.72521 28.0657C3.99228 28.0657 2.05549 26.8582 2.05549 23.2764Z" fill="#8AC530"/>
<path d="M12.9461 23.3899C12.6802 22.8563 12.4733 22.2974 12.3288 21.7222C12.1669 21.0659 12.0851 20.3937 12.085 19.7192V19.6569C12.0802 18.3862 12.3723 17.1307 12.94 15.9832C13.7904 16.8859 14.8023 17.6347 15.9277 18.1939H15.9524C15.8443 18.6495 15.7905 19.1154 15.7919 19.5827V19.645C15.7906 20.1453 15.8549 20.6438 15.9833 21.1287C14.8361 21.6983 13.8068 22.4646 12.9461 23.3899Z" fill="#8AC530"/>
<path d="M28.3426 15.2911C27.6222 14.1584 26.6322 13.2118 25.4565 12.5317C24.0453 11.7189 22.4341 11.295 20.7951 11.3054C19.3978 11.2979 18.0176 11.6059 16.7627 12.2051C17.2663 13.0779 18.0668 13.7518 19.0258 14.1105C19.1763 14.165 19.3318 14.2053 19.4901 14.2309C20.1367 14.3312 22.1353 14.6549 22.5791 14.8039C23.2358 15.028 23.8339 15.39 24.3311 15.8643C24.8283 16.3387 25.2125 16.9138 25.4565 17.549C25.7202 18.2073 25.8548 18.9081 25.8533 19.6149V19.6808V19.7008V19.7667C25.8563 20.4701 25.7247 21.1678 25.4653 21.8241C25.2213 22.4592 24.8371 23.0343 24.3399 23.5087C23.8427 23.983 23.2446 24.345 22.5879 24.5691C22.15 24.7181 20.1456 25.0418 19.499 25.1421C19.3406 25.1677 19.1851 25.208 19.0346 25.2625C18.0756 25.6212 17.2751 26.2951 16.7715 27.1679C18.0264 27.7671 19.4066 28.0751 20.8039 28.0676C22.4422 28.0783 24.0529 27.6565 25.4653 26.847C26.641 26.1669 27.631 25.2203 28.3515 24.0877C29.1893 22.7727 29.6313 21.2546 29.627 19.7066V19.675C29.6292 18.1252 29.1841 16.606 28.3426 15.2911Z" fill="#8AC530"/>
<path d="M28.7977 24.6932C28.053 25.872 26.9448 26.7275 25.7696 27.5086C28.8558 36.0005 15.9641 38.9532 15.394 29.849C15.3562 27.4685 16.6942 25.1653 19.0794 24.4443C20.3767 24.1267 21.7206 24.1324 22.7358 23.6804C22.8056 23.6317 23.1197 23.4772 23.2652 23.3942C23.5074 23.2407 23.7301 23.0592 23.9284 22.8535C24.2578 22.3833 24.5311 21.8774 24.7428 21.3457C23.4932 20.8881 22.1697 20.6565 20.8363 20.6618C19.4176 20.6446 18.0128 20.9396 16.7249 21.5252C15.437 22.1109 14.2985 22.9723 13.3928 24.0466C8.49146 29.7431 12.7383 39.2107 20.7694 38.9789C28.5155 39.1821 32.995 30.5414 28.7977 24.6932Z" fill="#005171"/>
<path d="M12.085 43.271H13.326V45.8632H16.6913V43.271H17.9324V49.5083H16.6942V46.8791H13.3431V49.5083H12.1048L12.085 43.271Z" fill="#005171"/>
<path d="M23 43.271H28.3903V44.2498H24.2912V45.8718H27.9364V46.8534H24.2912V48.5294H28.4576V49.5083H23.0146L23 43.271Z" fill="#005171"/>
<path d="M35.8794 43.271H37.0233L40.1519 49.5054H38.8335L38.11 48.0111H34.7527L34.0234 49.5083H32.7451L35.8794 43.271ZM37.6667 47.0478L36.4399 44.5704L35.2245 47.0507L37.6667 47.0478Z" fill="#005171"/>
<path d="M44.8485 43.271H46.1169V48.5124H49.8988V49.5083H44.8311L44.8485 43.271Z" fill="#005171"/>
<path d="M54.9108 44.2864H52.627V43.271H58.4744V44.2864H56.1906V49.5083H54.9137L54.9108 44.2864Z" fill="#005171"/>
<path d="M63.158 43.2738H64.3962V45.8661H67.7616V43.271H68.9998V49.5083H67.7587V46.8791H64.3934V49.5083H63.1523L63.158 43.2738Z" fill="#005171"/>
</svg>
