<svg width="640" height="480" xmlns="http://www.w3.org/2000/svg">
 <!-- Created with Method Draw - http://github.com/duopixel/Method-Draw/ -->

 <g>
  <title>background</title>
  <rect fill="#fff" id="canvas_background" height="482" width="642" y="-1" x="-1"/>
  <g display="none" overflow="visible" y="0" x="0" height="100%" width="100%" id="canvasGrid">
   <rect fill="url(#gridpattern)" stroke-width="0" y="0" x="0" height="100%" width="100%"/>
  </g>
 </g>
 <g>
  <title>Layer 1</title>
  <g stroke="null" id="svg_7">
   <g stroke="null" transform="matrix(9.023588787918246,0,0,9.023588787918246,-2.2812581062316895,-4007.816444386566) " id="svg_4" fill-rule="evenodd" fill="#000000">
    <path stroke="null" id="svg_5" d="m50.172906,488.295053c0.04017,-0.05035 1.5417,-2.1502 3.32947,-4.67304c1.78778,-2.5178 3.31441,-4.66297 3.38472,-4.75864c0.85873,-1.16826 1.91332,-2.70916 1.89825,-2.77966c-0.01506,-0.04532 -0.84869,-1.52578 -1.85808,-3.29832c-3.91703,-6.8736 -5.45873,-9.58779 -5.45873,-9.61296c0,-0.01007 1.78777,-0.01511 3.97729,-0.01007l3.9773,0.0151l0.21091,0.65463c0.1155,0.36256 0.54236,1.697 0.94411,2.97101c0.40677,1.274 0.7834,2.46241 0.84367,2.63362c0.05524,0.17624 0.12052,0.30213 0.14061,0.27696c0.02511,-0.02015 0.38166,-0.8057 0.79847,-1.74232l0.75327,-1.70204l-0.27118,-0.6647c-0.14563,-0.3676 -0.41681,-1.03733 -0.60262,-1.49557c-0.1858,-0.45824 -0.3465,-0.86109 -0.36157,-0.8913c-0.02008,-0.05036 0.83363,-0.06547 4.17315,-0.06547c2.31004,0 4.19825,0.01008 4.19825,0.02518c0,0.02014 -0.95415,2.06964 -3.74127,8.03179c-0.84869,1.81282 -2.11921,4.53204 -2.82227,6.04272c-0.70808,1.51068 -1.381,2.95087 -1.4965,3.19761c-0.24607,0.5237 -3.13865,6.71246 -3.48013,7.44262l-0.22599,0.48846l-4.19323,0c-3.98733,0 -4.18821,-0.00504 -4.1179,-0.08561zm-37.42271,-7.15559c-0.31638,-0.68484 -0.74323,-1.59629 -0.9441,-2.02431c-0.2059,-0.42803 -0.67293,-1.42508 -1.03952,-2.21567c-0.3666,-0.79059 -0.80852,-1.72721 -0.97926,-2.08977c-0.17074,-0.35753 -0.63275,-1.34451 -1.02948,-2.19049c-0.39672,-0.84598 -0.8286,-1.77253 -0.96921,-2.0646c-0.13559,-0.29206 -0.68799,-1.4704 -1.23035,-2.61851c-1.82293,-3.88749 -2.93275,-6.25926 -4.05262,-8.63606c-0.61267,-1.29919 -1.14498,-2.44227 -1.18515,-2.53291l-0.07031,-0.16114l4.20328,0.01007l4.19825,0.01511l0.04017,0.12589c0.2762,0.93158 1.37096,4.62772 1.9083,6.4355c0.2762,0.93159 0.58253,1.95885 0.67293,2.27609c0.09541,0.31724 0.30633,1.0323 0.47205,1.58622c0.16572,0.55391 0.47205,1.59628 0.68297,2.31637c0.21594,0.7201 0.40677,1.32437 0.42685,1.34955c0.01507,0.02014 0.1607,-0.2971 0.31638,-0.70499c0.15065,-0.41292 0.43188,-1.14308 0.61266,-1.6265c0.18581,-0.48342 0.4369,-1.14308 0.55743,-1.46032l0.21594,-0.5791l-0.50219,-1.30925c-0.28122,-0.7201 -0.5524,-1.41501 -0.60262,-1.54593l-0.09541,-0.24171l3.00808,0l3.00305,0l-0.41681,1.14811c-0.42183,1.15316 -0.56747,1.55097 -0.89389,2.42716c-0.18078,0.49349 -1.51157,4.13424 -1.8179,4.98525c-0.09542,0.26185 -0.22096,0.5942 -0.27118,0.73016c-0.10546,0.27696 -0.19083,0.5086 -1.00437,2.74441c-0.30633,0.84598 -0.63275,1.74232 -0.72816,1.98906c-0.0904,0.25178 -0.24607,0.67981 -0.34651,0.95677c-0.10546,0.27695 -0.231,0.61938 -0.28122,0.75534c-0.2762,0.72512 -1.20524,3.30335 -1.20524,3.34867c0,0.16618 -0.13559,-0.08057 -0.65284,-1.19847zm14.31223,1.11287c-3.64585,-0.37264 -6.2773,-2.30631 -7.51769,-5.52406c-0.79847,-2.06963 -0.96921,-4.7234 -0.44192,-6.90381c0.45197,-1.87828 1.381,-3.48464 2.69672,-4.64786c1.14498,-1.01216 2.67664,-1.79268 4.30874,-2.19553c3.85677,-0.95676 7.0607,0.56399 8.9941,4.27523c0.38166,0.73016 0.63778,1.39486 0.89891,2.31638c0.1155,0.41795 0.25612,0.90137 0.30633,1.07762c0.05022,0.17624 0.09542,0.32731 0.09542,0.33738c0,0.01007 -2.5059,0.02015 -5.56922,0.02015c-3.70109,0 -5.58427,0.0151 -5.60436,0.05035c-0.05022,0.08057 0.06528,0.9618 0.21091,1.61139c0.56747,2.5883 2.12926,4.11913 4.77577,4.68815c0.62271,0.13093 2.38035,0.18632 3.22904,0.10071c0.81856,-0.08057 1.9334,-0.29206 2.62642,-0.48845c0.32642,-0.09568 0.60764,-0.16114 0.61768,-0.15107c0.03516,0.03525 -0.25611,0.68988 -0.47707,1.07259c-1.37096,2.35162 -4.17315,4.00834 -7.35197,4.34572c-0.45698,0.04532 -1.40611,0.05539 -1.79781,0.01511zm2.88253,-14.2004c-0.0452,-0.32732 -0.25611,-0.99202 -0.40677,-1.29415c-0.19083,-0.38271 -0.61768,-0.80066 -0.98428,-0.96684c-0.26113,-0.12085 -0.37664,-0.141 -0.73821,-0.14603c-0.37664,0 -0.46703,0.02014 -0.75327,0.1561c-0.41179,0.20143 -0.73319,0.48342 -0.99433,0.88627c-0.19585,0.30213 -0.46703,1.01215 -0.53733,1.415l-0.03516,0.18632l2.23974,0l2.24476,0l-0.03515,-0.23667z"/>
    <path stroke="null" id="svg_6" d="m37.271816,480.283413l1.44126,-1.44522l0,-5.19171l0,-5.19171l-1.38602,-1.35457c-1.15503,-1.12294 -1.37096,-1.35962 -1.29564,-1.38983c0.05524,-0.02014 0.59258,-0.17625 1.20022,-0.34242c0.60764,-0.17121 1.37598,-0.38271 1.70742,-0.47838c0.33145,-0.09064 1.14498,-0.31725 1.80786,-0.50356c0.66289,-0.18128 1.52162,-0.42299 1.9083,-0.52874c0.38668,-0.11078 1.09978,-0.30717 1.58188,-0.44313l0.87882,-0.24675l0.02511,3.64578l0.02511,3.64577l0.32642,-0.66973c0.17576,-0.3676 0.98428,-2.01424 1.79279,-3.65081l1.46638,-2.98612l1.33078,0l1.33581,0l0,4.00331l0,4.0033l-3.13864,0l-3.13865,0l0,5.28739l0,5.28738l-4.65524,0l-4.66026,0l1.44629,-1.45025z"/>
   </g>
  </g>
 </g>
</svg>