<svg xmlns="http://www.w3.org/2000/svg" xmlns:xlink="http://www.w3.org/1999/xlink" width="241" height="64" viewBox="0 0 241 64">
  <defs>
    <polygon id="zillion-a" points="0 .04 64.071 .04 64.071 64 0 64"/>
    <polygon id="zillion-c" points=".886 .667 164.96 .667 164.96 43.334 .886 43.334"/>
  </defs>
  <g fill="none" fill-rule="evenodd">
    <mask id="zillion-b" fill="#fff">
      <use xlink:href="#zillion-a"/>
    </mask>
    <path fill="#4384C1" d="M0,31.901 L0,27.608 C0,27.344 0.132,27.014 0.331,26.815 C9.191,18.031 18.051,9.181 26.911,0.33 C27.11,0.132 27.44,0 27.705,0 L36.367,0 C36.631,0 37.028,0.132 37.226,0.396 C46.086,9.181 54.881,18.031 63.675,26.815 C63.873,27.014 64.005,27.41 64.071,27.674 L64.071,36.326 C64.071,36.591 63.939,36.987 63.675,37.185 L37.226,63.604 C37.028,63.802 36.631,63.934 36.367,64 L27.705,64 C27.44,64 27.044,63.868 26.845,63.604 C17.985,54.82 9.191,45.969 0.397,37.185 C0.066,36.921 0,36.657 0,36.26 L0,31.901 Z M32.069,15.852 L15.935,31.967 L32.069,48.083 L48.202,31.967 C42.78,26.617 37.425,21.201 32.069,15.852 Z M2.446,27.41 L27.573,52.508 C28.498,51.583 29.49,50.593 30.614,49.536 L8.464,27.41 L33.92,1.981 L28.63,1.981 C28.168,1.981 27.837,2.114 27.573,2.444 C19.307,10.634 11.108,18.824 2.909,27.08 C2.711,27.212 2.579,27.344 2.446,27.41 Z M36.565,2.444 L11.439,27.542 L14.414,30.514 C21.754,23.249 29.093,15.852 36.565,8.454 L62.022,33.883 L62.022,28.533 C62.022,28.07 61.889,27.74 61.559,27.476 C53.426,19.286 45.161,11.096 36.962,2.906 C36.829,2.774 36.697,2.576 36.565,2.444 Z M30.019,62.019 L35.441,62.019 C35.838,62.019 36.168,61.887 36.499,61.623 L61.294,36.855 C61.427,36.723 61.559,36.591 61.559,36.525 L36.499,11.492 L33.457,14.531 L55.542,36.591 C47.078,44.979 38.615,53.433 30.019,62.019 Z M27.506,55.612 L1.984,30.118 L1.984,35.468 C1.984,35.798 2.182,36.194 2.38,36.458 C10.646,44.714 18.911,52.97 27.11,61.226 L27.44,61.557 L52.566,36.458 C51.641,35.534 50.649,34.477 49.591,33.486 C42.318,40.752 34.978,48.149 27.506,55.612 Z" mask="url(#zillion-b)"/>
    <g transform="translate(76 10)">
      <mask id="zillion-d" fill="#fff">
        <use xlink:href="#zillion-c"/>
      </mask>
      <path fill="#4384C1" d="M26.859,19.547 L26.859,13.935 L1.426,13.935 L1.426,20.948 L15.196,20.948 L0.886,37.4 L0.886,43.012 L27.347,43.012 L27.347,35.999 L12.601,35.999 L26.859,19.547 Z M37.337,0.667 C34.472,0.667 32.424,2.72 32.424,5.574 C32.424,8.488 34.472,10.541 37.337,10.541 C40.195,10.541 42.25,8.488 42.25,5.574 C42.25,2.72 40.195,0.667 37.337,0.667 Z M32.634,43.012 L41.927,43.012 L41.927,13.936 L32.634,13.936 L32.634,43.012 Z M49.705,43.012 L59.043,43.012 L59.043,2.99 L49.705,2.99 L49.705,43.012 Z M67.038,43.012 L76.376,43.012 L76.376,2.99 L67.038,2.99 L67.038,43.012 Z M88.797,0.667 C85.939,0.667 83.884,2.72 83.884,5.574 C83.884,8.488 85.939,10.541 88.797,10.541 C91.662,10.541 93.717,8.488 93.717,5.574 C93.717,2.72 91.662,0.667 88.797,0.667 Z M84.101,43.012 L93.386,43.012 L93.386,13.936 L84.101,13.936 L84.101,43.012 Z M114.395,13.613 C104.84,13.613 98.464,19.494 98.464,28.447 C98.464,37.4 104.84,43.334 114.395,43.334 C123.898,43.334 130.273,37.4 130.273,28.447 C130.273,19.494 123.898,13.613 114.395,13.613 Z M114.395,21 C118.228,21 120.875,24.079 120.875,28.552 C120.875,33.085 118.228,36.104 114.395,36.104 C110.51,36.104 107.862,33.085 107.862,28.552 C107.862,24.079 110.51,21 114.395,21 Z M154.357,13.508 C150.037,13.56 146.691,15.284 144.636,18.685 L144.636,13.935 L135.298,13.935 L135.298,43.012 L144.636,43.012 L144.636,27.638 C145.019,24.184 147.179,21.757 150.577,21.757 C153.712,21.757 155.707,23.862 155.707,27.263 L155.707,43.012 L165,43.012 L165,24.671 C165,17.876 160.784,13.508 154.357,13.508 Z" mask="url(#zillion-d)"/>
    </g>
  </g>
</svg>
